<svg width="526" height="68" viewBox="0 0 526 68" fill="none" xmlns="http://www.w3.org/2000/svg">
<g clip-path="url(#clip0)">
<path d="M53.8683 25.9238C53.2832 25.9238 52.8046 26.4044 52.8046 26.9918V34.4674C52.8046 35.0547 53.2832 35.5353 53.8683 35.5353C54.4533 35.5353 54.9319 35.0547 54.9319 34.4674V26.9918C54.9319 26.4044 54.4533 25.9238 53.8683 25.9238ZM64.8048 44.1749C73.4546 39.0531 61.9181 34.4759 60.8842 28.8393C60.4481 25.1143 54.2533 14.7147 53.9916 14.2748C53.9002 14.121 51.8558 10.695 48.8563 7.22636L48.8648 7.22209C48.6606 6.99355 48.1713 6.45103 47.9713 6.2289L47.9671 6.23104C39.8683 -4.08739 27.4001 0.218539 15.7061 6.14347C16.7634 10.1119 19.1609 18.9673 20.9479 24.512C21.2883 25.5693 22.2647 26.2656 23.3709 26.2955C33.9841 26.5838 40.6235 46.1613 30.0018 50.8538C19.1141 55.7621 8.94976 36.663 16.7741 28.9055C17.4548 28.2306 17.6761 27.2182 17.3804 26.3062C15.6615 20.9964 13.3576 12.5447 12.2258 8.31566C-6.26914 21.7931 -2.20807 47.2356 13.9128 60.1791C20.699 65.4034 46.1929 67.8383 49.5838 68.0007C54.9809 67.975 65.3877 67.488 66.6684 61.5887L66.679 61.5866C66.7173 61.326 66.8428 60.4503 66.8832 60.1748L66.8386 60.1897C67.1726 55.085 65.2856 46.3001 64.8048 44.1749ZM62.8966 61.2513C41.6957 63.0305 28.3531 22.9101 44.6718 9.33233C45.8057 8.38828 47.4948 8.56769 48.4095 9.72747C50.5901 12.4956 52.026 14.9027 52.0451 14.9326C52.109 15.0373 58.3612 25.5351 58.7654 28.9888C59.044 31.3746 61.2203 33.7198 63.1391 35.7895C67.464 39.8818 66.1748 41.3128 62.4967 43.5384C62.4967 43.5384 63.388 47.0904 64.1369 51.0439C59.4504 52.2336 56.4679 49.4078 56.336 49.2797C56.0849 49.0341 55.6807 49.0383 55.434 49.2904C55.1872 49.5424 55.1915 49.9482 55.4425 50.196C55.5659 50.3177 57.9612 52.6202 61.8564 52.6202C62.635 52.6202 63.4753 52.5262 64.3666 52.3062C64.7793 54.645 65.1069 57.0073 65.1431 58.7673C65.1686 60.0637 64.1794 61.1423 62.8966 61.2513Z" fill="black"/>
</g>
<path d="M88.0341 51H95.4148V38.625H100.801L107.415 51H115.562L108.148 37.4318C112.119 35.7273 114.318 32.267 114.318 27.4943C114.318 20.5568 109.733 16.0909 101.807 16.0909H88.0341V51ZM95.4148 32.6932V22.125H100.392C104.653 22.125 106.716 24.017 106.716 27.4943C106.716 30.9545 104.653 32.6932 100.426 32.6932H95.4148ZM119.398 51H126.659V24.8182H119.398V51ZM123.045 21.4432C125.21 21.4432 126.983 19.7898 126.983 17.7614C126.983 15.75 125.21 14.0966 123.045 14.0966C120.898 14.0966 119.125 15.75 119.125 17.7614C119.125 19.7898 120.898 21.4432 123.045 21.4432ZM144.305 51.5114C151.277 51.5114 155.658 47.4205 155.999 41.4034H149.146C148.72 44.1989 146.879 45.767 144.391 45.767C140.999 45.767 138.8 42.9205 138.8 37.9091C138.8 32.9659 141.016 30.1364 144.391 30.1364C147.05 30.1364 148.754 31.892 149.146 34.5H155.999C155.692 28.4489 151.107 24.4773 144.271 24.4773C136.328 24.4773 131.419 29.983 131.419 38.0114C131.419 45.9716 136.243 51.5114 144.305 51.5114ZM172.477 51.5114C180.42 51.5114 185.364 46.0739 185.364 38.0114C185.364 29.8977 180.42 24.4773 172.477 24.4773C164.534 24.4773 159.591 29.8977 159.591 38.0114C159.591 46.0739 164.534 51.5114 172.477 51.5114ZM172.511 45.8864C168.847 45.8864 166.972 42.5284 166.972 37.9602C166.972 33.392 168.847 30.017 172.511 30.017C176.108 30.017 177.983 33.392 177.983 37.9602C177.983 42.5284 176.108 45.8864 172.511 45.8864Z" fill="black"/>
<path fill-rule="evenodd" clip-rule="evenodd" d="M245.124 19.8762C244.733 19.4857 244.1 19.4857 243.71 19.8762C243.319 20.2667 243.319 20.8999 243.71 21.2904L255.419 33H231C230.448 33 230 33.4477 230 34C230 34.5523 230.448 35 231 35H255.419L243.71 46.7096C243.319 47.1001 243.319 47.7332 243.71 48.1238C244.1 48.5143 244.733 48.5143 245.124 48.1238L258.537 34.7103C258.548 34.6998 258.558 34.689 258.568 34.678C258.733 34.4998 258.833 34.2616 258.833 34C258.833 33.8606 258.805 33.7278 258.753 33.6073C258.708 33.5011 258.644 33.4013 258.56 33.3129C258.553 33.3054 258.546 33.298 258.538 33.2907L245.124 19.8762Z" fill="black"/>
<path d="M243.71 19.8762L245.124 21.2904L245.124 21.2904L243.71 19.8762ZM245.124 19.8762L243.71 21.2904L243.71 21.2904L245.124 19.8762ZM243.71 21.2904L245.124 19.8762L245.124 19.8762L243.71 21.2904ZM255.419 33V35C256.228 35 256.957 34.5127 257.267 33.7654C257.576 33.018 257.405 32.1578 256.833 31.5858L255.419 33ZM255.419 35L256.833 36.4142C257.405 35.8422 257.576 34.982 257.267 34.2346C256.957 33.4873 256.228 33 255.419 33V35ZM243.71 46.7096L245.124 48.1238L245.124 48.1238L243.71 46.7096ZM243.71 48.1238L245.124 46.7096L245.124 46.7096L243.71 48.1238ZM258.537 34.7103L257.129 33.2897L257.123 33.2961L258.537 34.7103ZM258.568 34.678L260.038 36.0345L260.038 36.0344L258.568 34.678ZM258.753 33.6073L256.914 34.3919L256.914 34.3934L258.753 33.6073ZM258.56 33.3129L257.107 34.6874L257.107 34.6878L258.56 33.3129ZM258.538 33.2907L257.124 34.7049L257.128 34.7093L258.538 33.2907ZM245.124 21.2904C244.733 21.681 244.1 21.681 243.71 21.2904L246.538 18.462C245.366 17.2904 243.467 17.2904 242.295 18.462L245.124 21.2904ZM245.124 19.8762C245.514 20.2667 245.514 20.8999 245.124 21.2904L242.295 18.462C241.124 19.6336 241.124 21.5331 242.295 22.7046L245.124 19.8762ZM256.833 31.5858L245.124 19.8762L242.295 22.7046L254.005 34.4142L256.833 31.5858ZM231 35H255.419V31H231V35ZM232 34C232 34.5523 231.552 35 231 35V31C229.343 31 228 32.3431 228 34H232ZM231 33C231.552 33 232 33.4477 232 34H228C228 35.6569 229.343 37 231 37V33ZM255.419 33H231V37H255.419V33ZM245.124 48.1238L256.833 36.4142L254.005 33.5858L242.295 45.2953L245.124 48.1238ZM245.124 46.7096C245.514 47.1001 245.514 47.7332 245.124 48.1238L242.295 45.2953C241.124 46.4669 241.124 48.3664 242.295 49.538L245.124 46.7096ZM243.71 46.7096C244.1 46.319 244.733 46.319 245.124 46.7096L242.295 49.538C243.467 50.7096 245.366 50.7096 246.538 49.538L243.71 46.7096ZM257.123 33.2961L243.71 46.7096L246.538 49.538L259.951 36.1245L257.123 33.2961ZM257.099 33.3215C257.109 33.3108 257.119 33.3002 257.129 33.2897L259.945 36.131C259.977 36.0994 260.008 36.0672 260.038 36.0345L257.099 33.3215ZM256.833 34C256.833 33.7394 256.936 33.4982 257.099 33.3216L260.038 36.0344C260.53 35.5014 260.833 34.7838 260.833 34H256.833ZM256.914 34.3934C256.862 34.27 256.833 34.1357 256.833 34H260.833C260.833 33.5855 260.748 33.1856 260.592 32.8212L256.914 34.3934ZM257.107 34.6878C257.025 34.6012 256.96 34.5004 256.914 34.3919L260.593 32.8226C260.456 32.5019 260.262 32.2014 260.012 31.9379L257.107 34.6878ZM257.128 34.7093C257.121 34.702 257.114 34.6947 257.107 34.6874L260.013 31.9384C259.992 31.916 259.97 31.8939 259.948 31.872L257.128 34.7093ZM243.71 21.2904L257.124 34.7049L259.952 31.8764L246.538 18.462L243.71 21.2904Z" fill="black"/>
<g clip-path="url(#clip1)">
<path d="M332.831 2.42436e-07C326.106 2.90376e-07 319.532 1.99429 313.94 5.73066C308.349 9.46703 303.991 14.7777 301.417 20.991C298.844 27.2042 298.171 34.0411 299.483 40.637C300.795 47.2328 304.034 53.2914 308.79 58.0465C313.545 62.8016 319.604 66.0397 326.2 67.3512C332.796 68.6627 339.633 67.9888 345.846 65.4146C352.059 62.8405 357.369 58.4817 361.105 52.8896C364.841 47.2974 366.834 40.7231 366.833 33.998C366.833 29.5329 365.954 25.1117 364.245 20.9866C362.536 16.8615 360.032 13.1134 356.874 9.95634C353.717 6.79928 349.968 4.2951 345.843 2.58678C341.718 0.878457 337.296 -0.000532958 332.831 2.42436e-07V2.42436e-07ZM348.426 49.0401C348.28 49.2777 348.09 49.4843 347.865 49.6483C347.64 49.8122 347.384 49.9301 347.114 49.9953C346.843 50.0606 346.562 50.0718 346.287 50.0284C346.012 49.985 345.748 49.8878 345.511 49.7424C337.529 44.8705 327.476 43.7621 315.642 46.4661C315.104 46.5658 314.548 46.4537 314.091 46.1532C313.634 45.8527 313.311 45.387 313.189 44.8536C313.067 44.3203 313.156 43.7605 313.438 43.2915C313.72 42.8225 314.172 42.4805 314.7 42.3371C327.651 39.3733 338.759 40.6482 347.723 46.125C348.202 46.419 348.545 46.8909 348.677 47.4374C348.809 47.9838 348.718 48.5601 348.426 49.0401V49.0401ZM352.587 39.7874C352.405 40.0852 352.166 40.3441 351.883 40.5492C351.601 40.7543 351.281 40.9017 350.941 40.9828C350.602 41.0639 350.25 41.0772 349.905 41.0218C349.56 40.9665 349.23 40.8436 348.933 40.6603C339.802 35.0373 325.869 33.4093 315.073 36.6938C314.4 36.8984 313.673 36.8272 313.053 36.496C312.432 36.1648 311.969 35.6007 311.764 34.9277C311.56 34.2547 311.631 33.528 311.962 32.9075C312.293 32.287 312.857 31.8234 313.53 31.6188C325.869 27.8715 341.219 29.6863 351.714 36.1335C352.012 36.3156 352.271 36.5547 352.476 36.8371C352.681 37.1196 352.828 37.4397 352.909 37.7792C352.991 38.1187 353.004 38.4708 352.948 38.8155C352.893 39.1601 352.77 39.4904 352.587 39.7874V39.7874ZM352.944 30.1491C341.982 23.6532 323.908 23.0442 313.445 26.2191C312.638 26.4641 311.766 26.3782 311.021 25.9804C310.277 25.5826 309.721 24.9054 309.477 24.0978C309.232 23.2902 309.317 22.4184 309.715 21.6742C310.113 20.9299 310.79 20.3742 311.598 20.1292C323.607 16.4753 343.574 17.1857 356.192 24.6763C356.551 24.8896 356.865 25.1715 357.115 25.5059C357.365 25.8404 357.547 26.2208 357.65 26.6255C357.753 27.0303 357.776 27.4513 357.716 27.8647C357.656 28.278 357.516 28.6756 357.303 29.0347C357.089 29.3938 356.807 29.7073 356.473 29.9575C356.139 30.2076 355.758 30.3894 355.353 30.4925C354.536 30.7008 353.669 30.5758 352.944 30.1451V30.1491Z" fill="#1ED760"/>
<path d="M391.335 31.3874C385.464 29.9867 384.433 29.0042 384.433 26.9215C384.433 24.9687 386.272 23.6735 389.001 23.6735C391.648 23.6735 394.279 24.6723 397.027 26.7225C397.068 26.7527 397.115 26.7743 397.164 26.7862C397.214 26.798 397.265 26.7999 397.315 26.7916C397.366 26.7848 397.415 26.7677 397.459 26.7411C397.503 26.7146 397.541 26.6792 397.571 26.6373L400.438 22.5773C400.49 22.4957 400.511 22.398 400.498 22.3019C400.485 22.2059 400.437 22.1178 400.364 22.0536C397.187 19.4587 393.192 18.0748 389.09 18.1479C382.748 18.1479 378.323 21.9521 378.323 27.3924C378.323 33.2306 382.143 35.2971 388.741 36.8927C394.36 38.1838 395.306 39.2678 395.306 41.2084C395.306 43.3521 393.389 44.6878 390.304 44.6878C386.877 44.6878 384.084 43.5348 380.966 40.8268C380.886 40.7624 380.785 40.7292 380.682 40.7334C380.58 40.7443 380.485 40.7937 380.418 40.8714L377.19 44.7203C377.126 44.7962 377.093 44.8943 377.1 44.9936C377.107 45.093 377.153 45.1858 377.227 45.2521C380.769 48.4639 385.384 50.2349 390.166 50.2174C396.999 50.2174 401.412 46.4823 401.412 40.7091C401.404 35.8249 398.485 33.1251 391.335 31.3874Z" fill="#1ED760"/>
<path d="M416.856 25.5979C413.896 25.5979 411.464 26.7631 409.463 29.1545V26.4627C409.463 26.3591 409.424 26.2594 409.353 26.1839C409.282 26.1084 409.185 26.0629 409.081 26.0567H403.824C403.716 26.0567 403.613 26.0995 403.536 26.1756C403.46 26.2518 403.418 26.355 403.418 26.4627V56.3439C403.423 56.448 403.468 56.5461 403.543 56.6179C403.619 56.6898 403.719 56.7297 403.824 56.7296H409.081C409.132 56.7296 409.182 56.7196 409.228 56.7002C409.275 56.6807 409.317 56.6523 409.352 56.6164C409.388 56.5805 409.416 56.538 409.435 56.4912C409.454 56.4444 409.463 56.3944 409.463 56.3439V46.9127C410.369 47.9847 411.503 48.8413 412.782 49.42C414.061 49.9987 415.452 50.285 416.856 50.258C422.357 50.258 427.923 46.0235 427.923 37.928C427.923 29.8325 422.357 25.5979 416.856 25.5979ZM421.813 37.928C421.813 42.0529 419.276 44.9273 415.638 44.9273C412 44.9273 409.333 41.9189 409.333 37.928C409.333 33.9371 412.045 30.9327 415.638 30.9327C419.231 30.9327 421.813 33.8721 421.813 37.928V37.928Z" fill="#1ED760"/>
<path d="M442.198 25.5979C435.113 25.5979 429.564 31.0545 429.564 38.0173C429.564 44.9192 435.077 50.3068 442.113 50.3068C449.222 50.3068 454.788 44.8664 454.788 37.928C454.788 30.9895 449.258 25.5979 442.198 25.5979ZM442.198 44.972C438.43 44.972 435.589 41.9433 435.589 37.928C435.589 33.9127 438.333 30.9733 442.113 30.9733C445.893 30.9733 448.763 34.002 448.763 38.0173C448.763 42.0326 446.002 44.972 442.198 44.972Z" fill="#1ED760"/>
<path d="M469.915 26.077H464.13V20.1657C464.133 20.1136 464.126 20.0613 464.108 20.0122C464.09 19.963 464.063 19.918 464.027 19.88C463.991 19.8419 463.948 19.8116 463.9 19.7909C463.852 19.7702 463.801 19.7596 463.748 19.7597H458.491C458.387 19.7649 458.288 19.81 458.217 19.8856C458.145 19.9612 458.105 20.0615 458.105 20.1657V26.077H455.58C455.476 26.0832 455.379 26.1287 455.308 26.2042C455.237 26.2797 455.198 26.3794 455.198 26.483V30.9814C455.198 31.085 455.237 31.1847 455.308 31.2602C455.379 31.3357 455.476 31.3812 455.58 31.3874H458.105V43.076C458.105 47.7977 460.46 50.1931 465.096 50.1931C466.817 50.2341 468.518 49.8136 470.021 48.9751C470.078 48.9393 470.126 48.8897 470.159 48.8308C470.192 48.772 470.21 48.7057 470.212 48.6381V44.3143C470.212 44.2488 470.195 44.1844 470.163 44.1272C470.131 44.07 470.085 44.0219 470.029 43.9874C469.974 43.9529 469.91 43.9331 469.845 43.9299C469.779 43.9267 469.714 43.9402 469.655 43.9692C468.702 44.4627 467.643 44.7176 466.57 44.7121C464.885 44.7121 464.134 43.9489 464.134 42.2315V31.3671H469.919C470.024 31.3619 470.122 31.3168 470.193 31.2413C470.265 31.1657 470.305 31.0654 470.305 30.9611V26.4627C470.3 26.3613 470.257 26.2655 470.185 26.1941C470.113 26.1227 470.017 26.0809 469.915 26.077V26.077Z" fill="#1ED760"/>
<path d="M490.057 26.1014V25.3746C490.057 23.2391 490.869 22.285 492.712 22.285C493.724 22.2976 494.726 22.4829 495.676 22.8331C495.734 22.8505 495.794 22.8548 495.854 22.8457C495.914 22.8366 495.971 22.8142 496.021 22.7803C496.069 22.7434 496.108 22.6961 496.135 22.642C496.163 22.5879 496.178 22.5283 496.179 22.4677V18.0383C496.176 17.9565 496.149 17.8774 496.1 17.8115C496.052 17.7456 495.984 17.6958 495.907 17.6689C494.496 17.2397 493.026 17.0316 491.551 17.0518C486.679 17.0518 484.129 19.7841 484.129 24.9565V26.0689H481.604C481.503 26.0738 481.408 26.116 481.337 26.1873C481.265 26.2586 481.223 26.3539 481.218 26.4546V30.9814C481.218 31.0857 481.258 31.186 481.33 31.2616C481.402 31.3371 481.5 31.3822 481.604 31.3874H484.129V49.4176C484.129 49.5253 484.172 49.6286 484.248 49.7047C484.324 49.7808 484.428 49.8236 484.535 49.8236H489.789C489.893 49.8184 489.991 49.7733 490.063 49.6978C490.135 49.6222 490.175 49.5219 490.174 49.4176V31.3671H495.083L502.602 49.3933C501.749 51.2852 500.909 51.6628 499.76 51.6628C498.741 51.6414 497.743 51.362 496.861 50.8508C496.766 50.8029 496.655 50.7928 496.553 50.8224C496.453 50.8589 496.371 50.9333 496.325 51.0294L494.523 54.927C494.481 55.0152 494.474 55.1161 494.504 55.209C494.535 55.3019 494.599 55.3797 494.685 55.4263C496.396 56.3953 498.334 56.8914 500.3 56.8636C504.181 56.8636 506.325 55.0528 508.217 50.189L517.335 26.6413C517.359 26.5832 517.368 26.52 517.361 26.4575C517.354 26.395 517.331 26.3354 517.295 26.2841C517.26 26.2326 517.212 26.1905 517.157 26.1614C517.102 26.1324 517.041 26.1174 516.978 26.1176H511.518C511.438 26.1203 511.361 26.1463 511.296 26.1925C511.231 26.2387 511.181 26.303 511.152 26.3774L505.545 42.3858L499.395 26.349C499.367 26.2763 499.318 26.2136 499.255 26.1694C499.191 26.1251 499.115 26.1014 499.037 26.1014H490.057Z" fill="#1ED760"/>
<path d="M478.384 26.077H473.131C472.918 26.077 472.745 26.2497 472.745 26.4627V49.3933C472.745 49.6063 472.918 49.779 473.131 49.779H478.384C478.597 49.779 478.77 49.6063 478.77 49.3933V26.4627C478.77 26.2497 478.597 26.077 478.384 26.077Z" fill="#1ED760"/>
<path d="M475.786 15.6348C475.04 15.634 474.31 15.8546 473.689 16.2685C473.069 16.6825 472.585 17.2712 472.299 17.9604C472.012 18.6495 471.937 19.408 472.082 20.1399C472.227 20.8718 472.586 21.5442 473.114 22.0721C473.641 22.6 474.313 22.9596 475.045 23.1054C475.776 23.2513 476.535 23.1769 477.224 22.8915C477.914 22.6062 478.503 22.1227 478.918 21.5024C479.332 20.8821 479.554 20.1527 479.554 19.4065C479.553 18.4073 479.155 17.4491 478.449 16.7422C477.743 16.0352 476.785 15.637 475.786 15.6348V15.6348Z" fill="#1ED760"/>
<path d="M521.834 33.4499C521.101 33.4483 520.384 33.2295 519.775 32.8211C519.166 32.4127 518.692 31.8331 518.412 31.1554C518.132 30.4777 518.06 29.7322 518.203 29.0132C518.346 28.2941 518.7 27.6336 519.218 27.1152C519.737 26.5967 520.397 26.2434 521.116 26.1C521.835 25.9566 522.581 26.0294 523.258 26.3092C523.936 26.5891 524.516 27.0634 524.924 27.6724C525.332 28.2814 525.551 28.9977 525.553 29.731C525.553 30.7173 525.161 31.6632 524.464 32.3606C523.766 33.0581 522.82 33.4499 521.834 33.4499V33.4499ZM521.834 26.4018C521.171 26.3962 520.522 26.5877 519.969 26.9519C519.415 27.3162 518.982 27.8367 518.726 28.4475C518.469 29.0582 518.399 29.7316 518.526 30.3819C518.653 31.0323 518.97 31.6303 519.437 32.0999C519.904 32.5696 520.501 32.8897 521.151 33.0195C521.8 33.1494 522.474 33.0832 523.086 32.8293C523.698 32.5754 524.221 32.1452 524.588 31.5935C524.955 31.0419 525.149 30.3935 525.147 29.731C525.152 29.2946 525.07 28.8616 524.907 28.4569C524.743 28.0523 524.501 27.684 524.195 27.3734C523.888 27.0627 523.523 26.8158 523.121 26.647C522.718 26.4781 522.287 26.3907 521.85 26.3896L521.834 26.4018ZM522.646 30.1126L523.693 31.5782H522.812L521.87 30.2344H521.058V31.5782H520.324V27.6929H522.053C522.954 27.6929 523.547 28.1557 523.547 28.9312C523.561 29.1992 523.481 29.4637 523.321 29.6792C523.161 29.8948 522.931 30.048 522.67 30.1126H522.646ZM522.025 28.3587H521.058V29.5767H522.025C522.504 29.5767 522.792 29.3412 522.792 28.9596C522.792 28.5779 522.536 28.3587 522.049 28.3587H522.025Z" fill="#1ED760"/>
</g>
<defs>
<clipPath id="clip0">
<rect width="68" height="68" fill="white"/>
</clipPath>
<clipPath id="clip1">
<rect width="226.719" height="68" fill="white" transform="translate(298.833)"/>
</clipPath>
</defs>
</svg>
