<svg width="422" height="1024" viewBox="0 0 422 1024" fill="none" xmlns="http://www.w3.org/2000/svg">
<g opacity="0.31">
<circle cx="87" cy="70" r="32" fill="url(#paint0_linear)"/>
<path d="M141.494 43.5455L147.861 54.8295V61H151.526V54.8295L157.892 43.5455H153.759L149.778 51.0625H149.608L145.628 43.5455H141.494ZM163.036 61.2557C167.007 61.2557 169.479 58.5369 169.479 54.5057C169.479 50.4489 167.007 47.7386 163.036 47.7386C159.064 47.7386 156.592 50.4489 156.592 54.5057C156.592 58.5369 159.064 61.2557 163.036 61.2557ZM163.053 58.4432C161.22 58.4432 160.283 56.7642 160.283 54.4801C160.283 52.196 161.22 50.5085 163.053 50.5085C164.851 50.5085 165.788 52.196 165.788 54.4801C165.788 56.7642 164.851 58.4432 163.053 58.4432ZM180.234 55.4261C180.243 57.1818 179.041 58.1023 177.737 58.1023C176.365 58.1023 175.479 57.1392 175.47 55.5966V47.9091H171.839V56.2443C171.848 59.304 173.638 61.1705 176.271 61.1705C178.24 61.1705 179.655 60.1562 180.243 58.6222H180.379V61H183.865V47.9091H180.234V55.4261Z" fill="black"/>
<path d="M195.676 51.9119H198.878V61H200.111V51.9119H203.312V50.8182H195.676V51.9119ZM207.051 61.1591C209.119 61.1591 210.511 59.5881 210.511 57.2216C210.511 54.8352 209.119 53.2642 207.051 53.2642C204.983 53.2642 203.591 54.8352 203.591 57.2216C203.591 59.5881 204.983 61.1591 207.051 61.1591ZM207.051 60.1051C205.48 60.1051 204.764 58.7528 204.764 57.2216C204.764 55.6903 205.48 54.3182 207.051 54.3182C208.622 54.3182 209.338 55.6903 209.338 57.2216C209.338 58.7528 208.622 60.1051 207.051 60.1051ZM215.186 61.1591C216.657 61.1591 217.155 60.2443 217.413 59.8267H217.552V61H218.686V50.8182H217.513V54.5767H217.413C217.155 54.179 216.697 53.2642 215.206 53.2642C213.277 53.2642 211.944 54.7955 211.944 57.2017C211.944 59.6278 213.277 61.1591 215.186 61.1591ZM215.345 60.1051C213.873 60.1051 213.118 58.8125 213.118 57.1818C213.118 55.571 213.854 54.3182 215.345 54.3182C216.777 54.3182 217.532 55.4716 217.532 57.1818C217.532 58.9119 216.757 60.1051 215.345 60.1051ZM223.245 61.179C224.577 61.179 225.273 60.4631 225.512 59.9659H225.572V61H226.745V55.9688C226.745 53.5426 224.895 53.2642 223.921 53.2642C222.768 53.2642 221.455 53.6619 220.858 55.054L221.972 55.4517C222.231 54.8949 222.842 54.2983 223.961 54.2983C225.04 54.2983 225.572 54.87 225.572 55.8494V55.8892C225.572 56.456 224.995 56.4062 223.603 56.5852C222.186 56.7692 220.64 57.0824 220.64 58.8324C220.64 60.3239 221.793 61.179 223.245 61.179ZM223.424 60.125C222.489 60.125 221.813 59.7074 221.813 58.892C221.813 57.9972 222.628 57.7188 223.543 57.5994C224.04 57.5398 225.373 57.4006 225.572 57.1619V58.2358C225.572 59.1903 224.816 60.125 223.424 60.125ZM229.369 63.8636C230.428 63.8636 231.173 63.3018 231.616 62.1136L234.867 53.3835L233.585 53.3636L231.477 59.4489H231.397L229.289 53.3636H228.016L230.84 61.0398L230.621 61.6364C230.194 62.7997 229.667 62.9091 228.812 62.6903L228.513 63.7244C228.633 63.7841 228.971 63.8636 229.369 63.8636ZM242.604 61.179C243.937 61.179 244.633 60.4631 244.871 59.9659H244.931V61H246.104V55.9688C246.104 53.5426 244.255 53.2642 243.28 53.2642C242.127 53.2642 240.814 53.6619 240.218 55.054L241.331 55.4517C241.59 54.8949 242.202 54.2983 243.32 54.2983C244.399 54.2983 244.931 54.87 244.931 55.8494V55.8892C244.931 56.456 244.354 56.4062 242.962 56.5852C241.545 56.7692 239.999 57.0824 239.999 58.8324C239.999 60.3239 241.153 61.179 242.604 61.179ZM242.783 60.125C241.849 60.125 241.172 59.7074 241.172 58.892C241.172 57.9972 241.988 57.7188 242.903 57.5994C243.4 57.5398 244.732 57.4006 244.931 57.1619V58.2358C244.931 59.1903 244.175 60.125 242.783 60.125ZM251.567 53.3636H249.936V51.5341H248.763V53.3636H247.609V54.358H248.763V59.1307C248.763 60.4631 249.837 61.0994 250.831 61.0994C251.268 61.0994 251.547 61.0199 251.706 60.9602L251.467 59.9062C251.368 59.9261 251.209 59.9659 250.95 59.9659C250.433 59.9659 249.936 59.8068 249.936 58.8125V54.358H251.567V53.3636ZM260.491 50.679C258.423 50.6541 257.09 52.2102 257.09 54.0795C257.09 56.0483 258.542 57.4602 260.292 57.4602C261.346 57.4602 262.241 56.9432 262.798 56.108H262.877C262.877 58.6136 261.903 60.0455 260.332 60.0455C259.258 60.0455 258.602 59.3693 258.383 58.4347H257.17C257.408 60.0455 258.621 61.1392 260.332 61.1392C262.619 61.1392 264.031 59.1108 264.031 55.4915C264.031 51.7528 262.161 50.6989 260.491 50.679ZM260.491 51.7727C261.763 51.7727 262.698 52.8665 262.698 54.0597C262.698 55.2727 261.704 56.3665 260.451 56.3665C259.198 56.3665 258.283 55.3523 258.283 54.0795C258.283 52.8068 259.238 51.7727 260.491 51.7727ZM266.861 59.6974C267.353 59.6974 267.756 59.2947 267.756 58.8026C267.756 58.3104 267.353 57.9077 266.861 57.9077C266.368 57.9077 265.966 58.3104 265.966 58.8026C265.966 59.2947 266.368 59.6974 266.861 59.6974ZM266.861 54.5469C267.353 54.5469 267.756 54.1442 267.756 53.652C267.756 53.1598 267.353 52.7571 266.861 52.7571C266.368 52.7571 265.966 53.1598 265.966 53.652C265.966 54.1442 266.368 54.5469 266.861 54.5469ZM269.602 58.9119H274.395V61H275.568V58.9119H276.96V57.8182H275.568V50.8182H274.077L269.602 57.8977V58.9119ZM274.395 57.8182H270.935V57.7386L274.316 52.3892H274.395V57.8182ZM282.266 50.8182H281.033L278.488 52.5085V53.7614L280.974 52.1108H281.033V61H282.266V50.8182ZM289.729 61L290.753 58.1165H294.869L295.893 61H297.186L293.447 50.8182H292.175L288.436 61H289.729ZM291.141 57.0227L292.771 52.429H292.851L294.482 57.0227H291.141ZM298.772 50.8182V61H299.925V53.2642H300.025L303.207 61H304.32L307.502 53.2642H307.602V61H308.755V50.8182H307.283L303.823 59.2699H303.704L300.244 50.8182H298.772Z" fill="#999999"/>
<path d="M142.841 96H144.852V87.7159C144.852 85.9432 146.25 84.6477 148.159 84.6477C148.696 84.6477 149.25 84.75 149.386 84.7841V82.7386C149.156 82.7216 148.628 82.7045 148.33 82.7045C146.761 82.7045 145.398 83.5909 144.92 84.8864H144.784V82.9091H142.841V96ZM156.69 96.2727C159.588 96.2727 161.497 94.5 161.838 92.1818H159.827C159.452 93.6136 158.259 94.4659 156.69 94.4659C154.304 94.4659 152.77 92.4886 152.77 89.4545C152.77 86.4886 154.338 84.5455 156.69 84.5455C158.463 84.5455 159.52 85.6364 159.827 86.8295H161.838C161.497 84.375 159.418 82.7386 156.656 82.7386C153.111 82.7386 150.759 85.5341 150.759 89.5227C150.759 93.4432 153.009 96.2727 156.69 96.2727ZM167.438 78.5455H165.119L165.29 91.0909H167.267L167.438 78.5455ZM166.278 96.1364C167.122 96.1364 167.812 95.446 167.812 94.6023C167.812 93.7585 167.122 93.0682 166.278 93.0682C165.435 93.0682 164.744 93.7585 164.744 94.6023C164.744 95.446 165.435 96.1364 166.278 96.1364ZM173.469 78.5455H171.458V96H173.469V78.5455ZM177.153 96H179.165V82.9091H177.153V96ZM178.176 80.7273C178.96 80.7273 179.608 80.1136 179.608 79.3636C179.608 78.6136 178.96 78 178.176 78C177.392 78 176.744 78.6136 176.744 79.3636C176.744 80.1136 177.392 80.7273 178.176 80.7273ZM192.121 85.8409C191.491 83.983 190.076 82.7386 187.485 82.7386C184.724 82.7386 182.678 84.3068 182.678 86.5227C182.678 88.3295 183.752 89.5398 186.156 90.1023L188.337 90.6136C189.658 90.9205 190.281 91.5511 190.281 92.4545C190.281 93.5795 189.087 94.5 187.212 94.5C185.567 94.5 184.536 93.7926 184.178 92.3864L182.269 92.8636C182.738 95.0881 184.57 96.2727 187.246 96.2727C190.289 96.2727 192.36 94.6108 192.36 92.3523C192.36 90.5284 191.218 89.3778 188.883 88.8068L186.94 88.3295C185.388 87.946 184.69 87.4261 184.69 86.4205C184.69 85.2955 185.883 84.4773 187.485 84.4773C189.241 84.4773 189.965 85.4489 190.315 86.3523L192.121 85.8409ZM201.081 82.9091H198.286V79.7727H196.274V82.9091H194.297V84.6136H196.274V92.7955C196.274 95.0795 198.115 96.1705 199.82 96.1705C200.57 96.1705 201.047 96.0341 201.32 95.9318L200.911 94.125C200.74 94.1591 200.467 94.2273 200.024 94.2273C199.138 94.2273 198.286 93.9545 198.286 92.25V84.6136H201.081V82.9091Z" fill="black"/>
<circle cx="87" cy="193" r="32" fill="url(#paint1_linear)"/>
<path d="M142.517 184H146.207V177.812H148.901L152.207 184H156.281L152.574 177.216C154.56 176.364 155.659 174.634 155.659 172.247C155.659 168.778 153.366 166.545 149.403 166.545H142.517V184ZM146.207 174.847V169.562H148.696C150.827 169.562 151.858 170.509 151.858 172.247C151.858 173.977 150.827 174.847 148.713 174.847H146.207ZM158.199 184H161.83V170.909H158.199V184ZM160.023 169.222C161.105 169.222 161.991 168.395 161.991 167.381C161.991 166.375 161.105 165.548 160.023 165.548C158.949 165.548 158.062 166.375 158.062 167.381C158.062 168.395 158.949 169.222 160.023 169.222ZM170.653 184.256C174.138 184.256 176.329 182.21 176.499 179.202H173.073C172.86 180.599 171.94 181.384 170.695 181.384C168.999 181.384 167.9 179.96 167.9 177.455C167.9 174.983 169.008 173.568 170.695 173.568C172.025 173.568 172.877 174.446 173.073 175.75H176.499C176.346 172.724 174.053 170.739 170.636 170.739C166.664 170.739 164.21 173.491 164.21 177.506C164.21 181.486 166.621 184.256 170.653 184.256ZM184.739 184.256C188.71 184.256 191.182 181.537 191.182 177.506C191.182 173.449 188.71 170.739 184.739 170.739C180.767 170.739 178.295 173.449 178.295 177.506C178.295 181.537 180.767 184.256 184.739 184.256ZM184.756 181.443C182.923 181.443 181.986 179.764 181.986 177.48C181.986 175.196 182.923 173.509 184.756 173.509C186.554 173.509 187.491 175.196 187.491 177.48C187.491 179.764 186.554 181.443 184.756 181.443ZM193.611 184H201.068C204.989 184 207.077 181.955 207.077 179.176C207.077 176.594 205.227 175.034 203.241 174.94V174.77C205.057 174.361 206.395 173.074 206.395 171.02C206.395 168.403 204.452 166.545 200.599 166.545H193.611V184ZM197.301 180.983V176.347H200.395C202.168 176.347 203.267 177.369 203.267 178.81C203.267 180.122 202.372 180.983 200.31 180.983H197.301ZM197.301 173.849V169.528H200.105C201.741 169.528 202.67 170.372 202.67 171.634C202.67 173.014 201.545 173.849 200.037 173.849H197.301ZM215.325 184.256C219.296 184.256 221.768 181.537 221.768 177.506C221.768 173.449 219.296 170.739 215.325 170.739C211.353 170.739 208.881 173.449 208.881 177.506C208.881 181.537 211.353 184.256 215.325 184.256ZM215.342 181.443C213.509 181.443 212.572 179.764 212.572 177.48C212.572 175.196 213.509 173.509 215.342 173.509C217.14 173.509 218.077 175.196 218.077 177.48C218.077 179.764 217.14 181.443 215.342 181.443ZM231.092 170.909H228.629V167.773H224.998V170.909H223.208V173.636H224.998V180.455C224.981 183.02 226.728 184.29 229.362 184.179C230.299 184.145 230.964 183.957 231.33 183.838L230.759 181.136C230.58 181.17 230.197 181.256 229.856 181.256C229.131 181.256 228.629 180.983 228.629 179.977V173.636H231.092V170.909Z" fill="black"/>
<rect x="242" y="166.5" width="33" height="18" rx="6" fill="#5865F2"/>
<path d="M248 179.394H251.294C253.026 179.394 253.949 178.481 253.949 177.241C253.949 176.089 253.132 175.394 252.254 175.352V175.276C253.056 175.093 253.647 174.519 253.647 173.603C253.647 172.435 252.789 171.606 251.087 171.606H248V179.394ZM249.63 178.048V175.979H250.997C251.78 175.979 252.266 176.435 252.266 177.078C252.266 177.663 251.87 178.048 250.959 178.048H249.63ZM249.63 174.865V172.937H250.869C251.592 172.937 252.002 173.314 252.002 173.876C252.002 174.492 251.505 174.865 250.839 174.865H249.63Z" fill="white"/>
<path d="M262.095 175.5C262.095 172.952 260.529 171.5 258.484 171.5C256.429 171.5 254.874 172.952 254.874 175.5C254.874 178.036 256.429 179.5 258.484 179.5C260.529 179.5 262.095 178.048 262.095 175.5ZM260.442 175.5C260.442 177.15 259.667 178.044 258.484 178.044C257.299 178.044 256.527 177.15 256.527 175.5C256.527 173.85 257.299 172.956 258.484 172.956C259.667 172.956 260.442 173.85 260.442 175.5Z" fill="white"/>
<path d="M262.667 172.964H265.028V179.394H266.639V172.964H269V171.606H262.667V172.964Z" fill="white"/>
<path d="M284.676 174.412H287.878V183.5H289.111V174.412H292.312V173.318H284.676V174.412ZM296.051 183.659C298.119 183.659 299.511 182.088 299.511 179.722C299.511 177.335 298.119 175.764 296.051 175.764C293.983 175.764 292.591 177.335 292.591 179.722C292.591 182.088 293.983 183.659 296.051 183.659ZM296.051 182.605C294.48 182.605 293.764 181.253 293.764 179.722C293.764 178.19 294.48 176.818 296.051 176.818C297.622 176.818 298.338 178.19 298.338 179.722C298.338 181.253 297.622 182.605 296.051 182.605ZM304.186 183.659C305.657 183.659 306.155 182.744 306.413 182.327H306.552V183.5H307.686V173.318H306.513V177.077H306.413C306.155 176.679 305.697 175.764 304.206 175.764C302.277 175.764 300.944 177.295 300.944 179.702C300.944 182.128 302.277 183.659 304.186 183.659ZM304.345 182.605C302.873 182.605 302.118 181.312 302.118 179.682C302.118 178.071 302.854 176.818 304.345 176.818C305.777 176.818 306.532 177.972 306.532 179.682C306.532 181.412 305.757 182.605 304.345 182.605ZM312.245 183.679C313.577 183.679 314.273 182.963 314.512 182.466H314.572V183.5H315.745V178.469C315.745 176.043 313.895 175.764 312.921 175.764C311.768 175.764 310.455 176.162 309.858 177.554L310.972 177.952C311.231 177.395 311.842 176.798 312.961 176.798C314.04 176.798 314.572 177.37 314.572 178.349V178.389C314.572 178.956 313.995 178.906 312.603 179.085C311.186 179.269 309.64 179.582 309.64 181.332C309.64 182.824 310.793 183.679 312.245 183.679ZM312.424 182.625C311.489 182.625 310.813 182.207 310.813 181.392C310.813 180.497 311.628 180.219 312.543 180.099C313.04 180.04 314.373 179.901 314.572 179.662V180.736C314.572 181.69 313.816 182.625 312.424 182.625ZM318.369 186.364C319.428 186.364 320.173 185.802 320.616 184.614L323.867 175.884L322.585 175.864L320.477 181.949H320.397L318.289 175.864H317.016L319.84 183.54L319.621 184.136C319.194 185.3 318.667 185.409 317.812 185.19L317.513 186.224C317.633 186.284 317.971 186.364 318.369 186.364ZM331.604 183.679C332.937 183.679 333.633 182.963 333.871 182.466H333.931V183.5H335.104V178.469C335.104 176.043 333.255 175.764 332.28 175.764C331.127 175.764 329.814 176.162 329.218 177.554L330.331 177.952C330.59 177.395 331.202 176.798 332.32 176.798C333.399 176.798 333.931 177.37 333.931 178.349V178.389C333.931 178.956 333.354 178.906 331.962 179.085C330.545 179.269 328.999 179.582 328.999 181.332C328.999 182.824 330.153 183.679 331.604 183.679ZM331.783 182.625C330.849 182.625 330.172 182.207 330.172 181.392C330.172 180.497 330.988 180.219 331.903 180.099C332.4 180.04 333.732 179.901 333.931 179.662V180.736C333.931 181.69 333.175 182.625 331.783 182.625ZM340.567 175.864H338.936V174.034H337.763V175.864H336.609V176.858H337.763V181.631C337.763 182.963 338.837 183.599 339.831 183.599C340.268 183.599 340.547 183.52 340.706 183.46L340.467 182.406C340.368 182.426 340.209 182.466 339.95 182.466C339.433 182.466 338.936 182.307 338.936 181.312V176.858H340.567V175.864ZM349.491 173.179C347.423 173.154 346.09 174.71 346.09 176.58C346.09 178.548 347.542 179.96 349.292 179.96C350.346 179.96 351.241 179.443 351.798 178.608H351.877C351.877 181.114 350.903 182.545 349.332 182.545C348.258 182.545 347.602 181.869 347.383 180.935H346.17C346.408 182.545 347.621 183.639 349.332 183.639C351.619 183.639 353.031 181.611 353.031 177.991C353.031 174.253 351.161 173.199 349.491 173.179ZM349.491 174.273C350.763 174.273 351.698 175.366 351.698 176.56C351.698 177.773 350.704 178.866 349.451 178.866C348.198 178.866 347.283 177.852 347.283 176.58C347.283 175.307 348.238 174.273 349.491 174.273ZM355.861 182.197C356.353 182.197 356.756 181.795 356.756 181.303C356.756 180.81 356.353 180.408 355.861 180.408C355.368 180.408 354.966 180.81 354.966 181.303C354.966 181.795 355.368 182.197 355.861 182.197ZM355.861 177.047C356.353 177.047 356.756 176.644 356.756 176.152C356.756 175.66 356.353 175.257 355.861 175.257C355.368 175.257 354.966 175.66 354.966 176.152C354.966 176.644 355.368 177.047 355.861 177.047ZM358.602 181.412H363.395V183.5H364.568V181.412H365.96V180.318H364.568V173.318H363.077L358.602 180.398V181.412ZM363.395 180.318H359.935V180.239L363.316 174.889H363.395V180.318ZM371.266 173.318H370.033L367.488 175.009V176.261L369.974 174.611H370.033V183.5H371.266V173.318ZM378.729 183.5L379.753 180.616H383.869L384.893 183.5H386.186L382.447 173.318H381.175L377.436 183.5H378.729ZM380.141 179.523L381.771 174.929H381.851L383.482 179.523H380.141ZM387.772 173.318V183.5H388.925V175.764H389.025L392.207 183.5H393.32L396.502 175.764H396.602V183.5H397.755V173.318H396.283L392.823 181.77H392.704L389.244 173.318H387.772Z" fill="#999999"/>
<g clip-path="url(#clip0)">
<rect width="281" height="828" transform="translate(141 196)" fill="#2F3136"/>
<rect x="141" y="196" width="8" height="828" fill="#20CE09"/>
<path d="M180.517 250H184.207V243.812H186.901L190.207 250H194.281L190.574 243.216C192.56 242.364 193.659 240.634 193.659 238.247C193.659 234.778 191.366 232.545 187.403 232.545H180.517V250ZM184.207 240.847V235.562H186.696C188.827 235.562 189.858 236.509 189.858 238.247C189.858 239.977 188.827 240.847 186.713 240.847H184.207ZM201.954 250.256C205.192 250.256 207.374 248.679 207.886 246.25L204.528 246.028C204.161 247.026 203.224 247.545 202.013 247.545C200.198 247.545 199.048 246.344 199.048 244.392V244.384H207.962V243.386C207.962 238.938 205.269 236.739 201.809 236.739C197.957 236.739 195.46 239.474 195.46 243.514C195.46 247.665 197.923 250.256 201.954 250.256ZM199.048 242.134C199.124 240.642 200.258 239.449 201.869 239.449C203.445 239.449 204.536 240.574 204.545 242.134H199.048ZM216.246 250.256C219.732 250.256 221.923 248.21 222.093 245.202H218.667C218.454 246.599 217.533 247.384 216.289 247.384C214.593 247.384 213.494 245.96 213.494 243.455C213.494 240.983 214.602 239.568 216.289 239.568C217.619 239.568 218.471 240.446 218.667 241.75H222.093C221.94 238.724 219.647 236.739 216.229 236.739C212.258 236.739 209.803 239.491 209.803 243.506C209.803 247.486 212.215 250.256 216.246 250.256ZM230.332 250.256C234.304 250.256 236.776 247.537 236.776 243.506C236.776 239.449 234.304 236.739 230.332 236.739C226.361 236.739 223.889 239.449 223.889 243.506C223.889 247.537 226.361 250.256 230.332 250.256ZM230.349 247.443C228.517 247.443 227.58 245.764 227.58 243.48C227.58 241.196 228.517 239.509 230.349 239.509C232.148 239.509 233.085 241.196 233.085 243.48C233.085 245.764 232.148 247.443 230.349 247.443ZM239.136 250H242.767V242.142C242.767 240.693 243.688 239.73 244.898 239.73C246.091 239.73 246.892 240.548 246.892 241.835V250H250.412V242.006C250.412 240.651 251.188 239.73 252.509 239.73C253.668 239.73 254.537 240.455 254.537 241.912V250H258.159V241.196C258.159 238.358 256.472 236.739 254.034 236.739C252.116 236.739 250.625 237.719 250.088 239.219H249.952C249.534 237.702 248.196 236.739 246.398 236.739C244.634 236.739 243.295 237.676 242.75 239.219H242.597V236.909H239.136V250ZM261.027 250H264.658V242.142C264.658 240.693 265.578 239.73 266.788 239.73C267.982 239.73 268.783 240.548 268.783 241.835V250H272.303V242.006C272.303 240.651 273.078 239.73 274.399 239.73C275.558 239.73 276.428 240.455 276.428 241.912V250H280.05V241.196C280.05 238.358 278.362 236.739 275.925 236.739C274.007 236.739 272.516 237.719 271.979 239.219H271.842C271.425 237.702 270.087 236.739 268.288 236.739C266.524 236.739 265.186 237.676 264.641 239.219H264.487V236.909H261.027V250ZM288.884 250.256C292.122 250.256 294.304 248.679 294.815 246.25L291.457 246.028C291.091 247.026 290.153 247.545 288.943 247.545C287.128 247.545 285.977 246.344 285.977 244.392V244.384H294.892V243.386C294.892 238.938 292.199 236.739 288.739 236.739C284.886 236.739 282.389 239.474 282.389 243.514C282.389 247.665 284.852 250.256 288.884 250.256ZM285.977 242.134C286.054 240.642 287.188 239.449 288.798 239.449C290.375 239.449 291.466 240.574 291.474 242.134H285.977ZM300.892 242.432C300.901 240.744 301.906 239.756 303.372 239.756C304.83 239.756 305.707 240.71 305.699 242.312V250H309.33V241.665C309.33 238.614 307.54 236.739 304.812 236.739C302.869 236.739 301.463 237.693 300.875 239.219H300.722V236.909H297.261V250H300.892V242.432ZM317.015 250.213C319.129 250.213 320.228 248.994 320.731 247.903H320.884V250H324.464V232.545H320.842V239.108H320.731C320.245 238.043 319.197 236.739 317.006 236.739C314.134 236.739 311.705 238.972 311.705 243.472C311.705 247.852 314.032 250.213 317.015 250.213ZM318.165 247.324C316.384 247.324 315.413 245.739 315.413 243.455C315.413 241.188 316.367 239.628 318.165 239.628C319.93 239.628 320.918 241.119 320.918 243.455C320.918 245.79 319.913 247.324 318.165 247.324ZM331.182 250.247C333.116 250.247 334.369 249.403 335.009 248.185H335.111V250H338.554V241.17C338.554 238.051 335.912 236.739 332.997 236.739C329.861 236.739 327.798 238.239 327.295 240.625L330.653 240.898C330.901 240.028 331.676 239.389 332.98 239.389C334.216 239.389 334.923 240.011 334.923 241.085V241.136C334.923 241.98 334.028 242.091 331.753 242.312C329.162 242.551 326.835 243.42 326.835 246.344C326.835 248.935 328.685 250.247 331.182 250.247ZM332.222 247.741C331.105 247.741 330.304 247.222 330.304 246.224C330.304 245.202 331.148 244.699 332.426 244.52C333.219 244.409 334.514 244.222 334.949 243.932V245.321C334.949 246.693 333.815 247.741 332.222 247.741ZM348.334 236.909H345.871V233.773H342.24V236.909H340.45V239.636H342.24V246.455C342.223 249.02 343.97 250.29 346.604 250.179C347.541 250.145 348.206 249.957 348.572 249.838L348.001 247.136C347.822 247.17 347.439 247.256 347.098 247.256C346.374 247.256 345.871 246.983 345.871 245.977V239.636H348.334V236.909ZM350.699 250H354.33V236.909H350.699V250ZM352.523 235.222C353.605 235.222 354.491 234.395 354.491 233.381C354.491 232.375 353.605 231.548 352.523 231.548C351.449 231.548 350.562 232.375 350.562 233.381C350.562 234.395 351.449 235.222 352.523 235.222ZM363.153 250.256C367.124 250.256 369.596 247.537 369.596 243.506C369.596 239.449 367.124 236.739 363.153 236.739C359.181 236.739 356.71 239.449 356.71 243.506C356.71 247.537 359.181 250.256 363.153 250.256ZM363.17 247.443C361.337 247.443 360.4 245.764 360.4 243.48C360.4 241.196 361.337 239.509 363.17 239.509C364.968 239.509 365.906 241.196 365.906 243.48C365.906 245.764 364.968 247.443 363.17 247.443ZM375.587 242.432C375.596 240.744 376.602 239.756 378.067 239.756C379.525 239.756 380.403 240.71 380.394 242.312V250H384.025V241.665C384.025 238.614 382.235 236.739 379.508 236.739C377.565 236.739 376.158 237.693 375.57 239.219H375.417V236.909H371.957V250H375.587V242.432ZM397.778 240.642C397.455 238.23 395.511 236.739 392.205 236.739C388.855 236.739 386.648 238.29 386.656 240.812C386.648 242.773 387.884 244.043 390.44 244.554L392.707 245.006C393.849 245.236 394.369 245.653 394.386 246.31C394.369 247.085 393.526 247.639 392.256 247.639C390.96 247.639 390.099 247.085 389.878 246.02L386.307 246.207C386.648 248.713 388.778 250.256 392.247 250.256C395.639 250.256 398.068 248.526 398.077 245.943C398.068 244.051 396.832 242.918 394.293 242.398L391.923 241.92C390.705 241.656 390.253 241.239 390.261 240.608C390.253 239.824 391.139 239.312 392.264 239.312C393.526 239.312 394.276 240.003 394.455 240.847L397.778 240.642ZM412.957 236.909H410.358V236.031C410.358 235.145 410.716 234.625 411.781 234.625C412.216 234.625 412.659 234.719 412.949 234.812L413.588 232.085C413.136 231.949 412.139 231.727 411.023 231.727C408.56 231.727 406.727 233.116 406.727 235.963V236.909H404.878V239.636H406.727V250H410.358V239.636H412.957V236.909ZM420.621 250.256C424.593 250.256 427.065 247.537 427.065 243.506C427.065 239.449 424.593 236.739 420.621 236.739C416.65 236.739 414.178 239.449 414.178 243.506C414.178 247.537 416.65 250.256 420.621 250.256ZM420.638 247.443C418.806 247.443 417.869 245.764 417.869 243.48C417.869 241.196 418.806 239.509 420.638 239.509C422.437 239.509 423.374 241.196 423.374 243.48C423.374 245.764 422.437 247.443 420.638 247.443ZM429.425 250H433.056V242.594C433.056 240.983 434.232 239.875 435.835 239.875C436.337 239.875 437.028 239.96 437.369 240.071V236.849C437.045 236.773 436.593 236.722 436.227 236.722C434.761 236.722 433.559 237.574 433.082 239.193H432.945V236.909H429.425V250ZM443.846 232.545L450.212 243.83V250H453.877V243.83L460.244 232.545H456.11L452.13 240.062H451.96L447.979 232.545H443.846ZM465.387 250.256C469.359 250.256 471.83 247.537 471.83 243.506C471.83 239.449 469.359 236.739 465.387 236.739C461.415 236.739 458.944 239.449 458.944 243.506C458.944 247.537 461.415 250.256 465.387 250.256ZM465.404 247.443C463.572 247.443 462.634 245.764 462.634 243.48C462.634 241.196 463.572 239.509 465.404 239.509C467.202 239.509 468.14 241.196 468.14 243.48C468.14 245.764 467.202 247.443 465.404 247.443ZM482.586 244.426C482.594 246.182 481.393 247.102 480.089 247.102C478.717 247.102 477.83 246.139 477.822 244.597V236.909H474.191V245.244C474.2 248.304 475.989 250.17 478.623 250.17C480.592 250.17 482.006 249.156 482.594 247.622H482.731V250H486.217V236.909H482.586V244.426Z" fill="white"/>
<path d="M180.355 285H188.614V283.594H182.528V283.491L185.469 280.347C187.719 277.937 188.384 276.812 188.384 275.361C188.384 273.341 186.747 271.73 184.446 271.73C182.151 271.73 180.406 273.29 180.406 275.591H181.915C181.915 274.102 182.88 273.111 184.395 273.111C185.814 273.111 186.901 273.98 186.901 275.361C186.901 276.569 186.191 277.464 184.676 279.119L180.355 283.849V285ZM195.523 285.179C198.413 285.179 200.075 282.731 200.075 278.455C200.075 274.21 198.387 271.73 195.523 271.73C192.66 271.73 190.972 274.21 190.972 278.455C190.972 282.731 192.634 285.179 195.523 285.179ZM195.523 283.773C193.619 283.773 192.506 281.862 192.506 278.455C192.506 275.054 193.631 273.111 195.523 273.111C197.415 273.111 198.54 275.054 198.54 278.455C198.54 281.862 197.428 283.773 195.523 283.773ZM207.592 285H209.1V275.182H207.592V285ZM208.359 273.545C208.947 273.545 209.433 273.085 209.433 272.523C209.433 271.96 208.947 271.5 208.359 271.5C207.771 271.5 207.285 271.96 207.285 272.523C207.285 273.085 207.771 273.545 208.359 273.545ZM216.133 275.182H214.036V272.83H212.528V275.182H211.045V276.46H212.528V282.597C212.528 284.31 213.909 285.128 215.187 285.128C215.749 285.128 216.107 285.026 216.312 284.949L216.005 283.594C215.877 283.619 215.673 283.67 215.34 283.67C214.676 283.67 214.036 283.466 214.036 282.188V276.46H216.133V275.182ZM222.413 285.205C224.407 285.205 225.865 284.207 226.325 282.724L224.868 282.315C224.484 283.338 223.596 283.849 222.413 283.849C220.643 283.849 219.422 282.705 219.351 280.602H226.479V279.963C226.479 276.307 224.305 275.054 222.26 275.054C219.601 275.054 217.836 277.151 217.836 280.168C217.836 283.185 219.575 285.205 222.413 285.205ZM219.351 279.298C219.454 277.771 220.534 276.409 222.26 276.409C223.896 276.409 224.944 277.636 224.944 279.298H219.351ZM228.773 285H230.282V278.864C230.282 277.425 231.33 276.409 232.506 276.409C233.65 276.409 234.449 277.157 234.449 278.276V285H235.983V278.608C235.983 277.342 236.776 276.409 238.157 276.409C239.231 276.409 240.151 276.978 240.151 278.429V285H241.66V278.429C241.66 276.121 240.42 275.054 238.668 275.054C237.262 275.054 236.233 275.7 235.728 276.716H235.626C235.14 275.668 234.283 275.054 232.992 275.054C231.714 275.054 230.768 275.668 230.358 276.716H230.231V275.182H228.773V285ZM251.372 277.381C250.899 275.987 249.838 275.054 247.895 275.054C245.824 275.054 244.29 276.23 244.29 277.892C244.29 279.247 245.095 280.155 246.898 280.577L248.534 280.96C249.525 281.19 249.992 281.663 249.992 282.341C249.992 283.185 249.097 283.875 247.691 283.875C246.457 283.875 245.683 283.344 245.415 282.29L243.983 282.648C244.335 284.316 245.709 285.205 247.716 285.205C249.998 285.205 251.551 283.958 251.551 282.264C251.551 280.896 250.695 280.033 248.943 279.605L247.486 279.247C246.323 278.96 245.798 278.57 245.798 277.815C245.798 276.972 246.693 276.358 247.895 276.358C249.212 276.358 249.755 277.087 250.017 277.764L251.372 277.381ZM263.154 275.182H261.058V272.83H259.549V275.182H258.066V276.46H259.549V282.597C259.549 284.31 260.93 285.128 262.208 285.128C262.771 285.128 263.129 285.026 263.333 284.949L263.027 283.594C262.899 283.619 262.694 283.67 262.362 283.67C261.697 283.67 261.058 283.466 261.058 282.188V276.46H263.154V275.182ZM269.307 285.205C271.966 285.205 273.756 283.185 273.756 280.142C273.756 277.074 271.966 275.054 269.307 275.054C266.648 275.054 264.858 277.074 264.858 280.142C264.858 283.185 266.648 285.205 269.307 285.205ZM269.307 283.849C267.287 283.849 266.366 282.111 266.366 280.142C266.366 278.173 267.287 276.409 269.307 276.409C271.327 276.409 272.247 278.173 272.247 280.142C272.247 282.111 271.327 283.849 269.307 283.849ZM280.328 275.182H278.232V272.83H276.723V275.182H275.24V276.46H276.723V282.597C276.723 284.31 278.104 285.128 279.382 285.128C279.945 285.128 280.303 285.026 280.507 284.949L280.2 283.594C280.073 283.619 279.868 283.67 279.536 283.67C278.871 283.67 278.232 283.466 278.232 282.188V276.46H280.328V275.182ZM285.487 285.23C287.2 285.23 288.095 284.31 288.401 283.67H288.478V285H289.987V278.531C289.987 275.412 287.609 275.054 286.356 275.054C284.873 275.054 283.186 275.565 282.419 277.355L283.85 277.866C284.183 277.151 284.969 276.384 286.407 276.384C287.794 276.384 288.478 277.119 288.478 278.378V278.429C288.478 279.158 287.737 279.094 285.947 279.324C284.125 279.56 282.137 279.963 282.137 282.213C282.137 284.131 283.62 285.23 285.487 285.23ZM285.717 283.875C284.515 283.875 283.646 283.338 283.646 282.29C283.646 281.139 284.694 280.781 285.87 280.628C286.509 280.551 288.222 280.372 288.478 280.065V281.446C288.478 282.673 287.507 283.875 285.717 283.875ZM294.249 271.909H292.74V285H294.249V271.909Z" fill="white"/>
<line x1="191.5" y1="337.5" x2="321.5" y2="337.5" stroke="white" stroke-width="25" stroke-linecap="round"/>
<line x1="186" y1="373" x2="346" y2="373" stroke="white" stroke-width="14" stroke-linecap="round"/>
<line x1="186" y1="403" x2="467" y2="403" stroke="#00AFF4" stroke-width="14" stroke-linecap="round"/>
<line x1="186" y1="433" x2="346" y2="433" stroke="white" stroke-width="14" stroke-linecap="round"/>
<line x1="186" y1="463" x2="381" y2="463" stroke="white" stroke-width="14" stroke-linecap="round"/>
<line x1="191.5" y1="518.5" x2="321.5" y2="518.5" stroke="white" stroke-width="25" stroke-linecap="round"/>
<line x1="186" y1="554" x2="346" y2="554" stroke="white" stroke-width="14" stroke-linecap="round"/>
<line x1="186" y1="584" x2="467" y2="584" stroke="#00AFF4" stroke-width="14" stroke-linecap="round"/>
<line x1="186" y1="614" x2="346" y2="614" stroke="white" stroke-width="14" stroke-linecap="round"/>
<line x1="186" y1="644" x2="381" y2="644" stroke="white" stroke-width="14" stroke-linecap="round"/>
<line x1="191.5" y1="699.5" x2="321.5" y2="699.5" stroke="white" stroke-width="25" stroke-linecap="round"/>
<line x1="186" y1="735" x2="346" y2="735" stroke="white" stroke-width="14" stroke-linecap="round"/>
<line x1="186" y1="765" x2="467" y2="765" stroke="#00AFF4" stroke-width="14" stroke-linecap="round"/>
<line x1="186" y1="795" x2="346" y2="795" stroke="white" stroke-width="14" stroke-linecap="round"/>
<line x1="186" y1="825" x2="381" y2="825" stroke="white" stroke-width="14" stroke-linecap="round"/>
<line x1="191.5" y1="880.5" x2="321.5" y2="880.5" stroke="white" stroke-width="25" stroke-linecap="round"/>
<line x1="186" y1="916" x2="346" y2="916" stroke="white" stroke-width="14" stroke-linecap="round"/>
<line x1="186" y1="946" x2="467" y2="946" stroke="#00AFF4" stroke-width="14" stroke-linecap="round"/>
<line x1="186" y1="976" x2="346" y2="976" stroke="white" stroke-width="14" stroke-linecap="round"/>
<line x1="186" y1="1006" x2="381" y2="1006" stroke="white" stroke-width="14" stroke-linecap="round"/>
</g>
</g>
<defs>
<linearGradient id="paint0_linear" x1="87" y1="38" x2="87" y2="102" gradientUnits="userSpaceOnUse">
<stop stop-color="#57FFC3"/>
<stop offset="1" stop-color="#514982"/>
</linearGradient>
<linearGradient id="paint1_linear" x1="87" y1="161" x2="87" y2="225" gradientUnits="userSpaceOnUse">
<stop stop-color="#57FFC3"/>
<stop offset="1" stop-color="#514982"/>
</linearGradient>
<clipPath id="clip0">
<rect width="281" height="828" fill="white" transform="translate(141 196)"/>
</clipPath>
</defs>
</svg>
